<?xml version="1.0" encoding="utf-8"?>
<!-- Generator: Adobe Illustrator 23.0.0, SVG Export Plug-In . SVG Version: 6.00 Build 0)  -->
<svg version="1.1" id="Capa_1" xmlns="http://www.w3.org/2000/svg" xmlns:xlink="http://www.w3.org/1999/xlink" x="0px" y="0px"
	 viewBox="0 0 15 14" style="enable-background:new 0 0 15 14;" xml:space="preserve">
<style type="text/css">
	.st0{fill:#444444;}
	.st1{fill:#E0DA34;}
	.st2{fill:#DA9558;}
	.st3{fill:#FFFFFF;}
</style>
<path d="M14,8"/>
<rect x="7" class="st0" width="1" height="1"/>
<rect x="10" y="13" class="st0" width="5" height="1"/>
<rect x="14" y="12" class="st0" width="1" height="1"/>
<polygon class="st1" points="0.99,13 1,12 3,12 3,11 4,11 4,8 3,8 3,7 1,7 0.99,6 5.01,5.99 4.99,5 6,5 6,3 7,3 7,1 8,1 8,3 9,3 
	9,5 10.01,5 9.99,5.99 14.01,6 14.01,7 12,7 12,8 11,8 11,11 12,11 12,12 14.01,12 14,13 9.99,13.01 10,11.01 9,11 9.01,10 
	8.01,9.99 8,9 7,9 7,10 6,10 6,11 5,11 5.01,13.01 "/>
<polygon class="st1" points="1,12 5,12 5.01,13.01 0.99,13 "/>
<rect x="7.25" y="7.85" class="st2" width="0.5" height="0.58"/>
<polygon class="st3" points="4,5.99 5.01,5.99 4.99,5 6,5 6,4 6.5,4 6.5,5 6.5,5.5 5.5,5.48 5.5,6 5.5,6.5 4,6.5 "/>
<polygon class="st2" points="14,12.5 11,12.5 10.49,12.5 10.49,10.48 9.5,10.48 9.5,9.5 8.5,9.5 8.5,8.42 6.5,8.42 6.5,9.5 5.5,9.5 
	5.5,10.46 4.51,10.46 4.51,11.5 4.51,12.5 1,12.5 0.99,13 5.01,13.01 5,11 6.5,10.99 6.5,10 7,10 7,9 8,9 8.01,9.99 9.01,10 9,11 
	10,11.01 9.99,13.01 14,13 "/>
<polygon class="st0" points="5,13 6,13 6,12 7,12 7,10 6,10 6,11 5,11 "/>
<rect x="7" y="9" class="st0" width="1" height="1"/>
<polygon class="st0" points="8.01,9.99 9.01,10 9,11 10,11.01 9.99,13.01 8.99,13 9,12 8,11.99 "/>
<polygon class="st0" points="9.99,13.01 14,13 14,12 15,12 15,14 10,14 "/>
<polygon class="st0" points="14.01,12 14,11 13,11 13,10 12,10 12,9 13,9 13,8 14,8 14.01,7 12,7 12,8 11,8 11,11 12,11 12,12 "/>
<polygon class="st0" points="9.99,5.99 14.01,6 14.01,7 15.01,7 15.01,5 10.01,5 "/>
<polygon class="st0" points="10.01,5 9,5 9,3 8,3 8,1 9,1 9,2 10,2 "/>
<polygon class="st0" points="5,5 6.01,5 6.01,3 7.01,3 7.01,1 6.01,1 6.01,2 5.01,2 "/>
<polygon class="st0" points="5.01,5.99 0.99,6 0.99,7 -0.01,7 -0.01,5 4.99,5 "/>
<polygon class="st0" points="1,12 1,11 2,11 2,10 3,10 3,9 2,9 2,8 1,8 1,7 3,7 3,8 4,8 4,11 3,11 3,12 "/>
<polygon class="st0" points="5.01,13.01 0.99,13 0.99,12 -0.01,12 -0.01,14 4.99,14 "/>
</svg>
