<?xml version="1.0" encoding="utf-8"?>
<!-- Generator: Adobe Illustrator 23.0.0, SVG Export Plug-In . SVG Version: 6.00 Build 0)  -->
<svg version="1.1" id="Capa_1" xmlns="http://www.w3.org/2000/svg" xmlns:xlink="http://www.w3.org/1999/xlink" x="0px" y="0px"
	 viewBox="0 0 15 14" style="enable-background:new 0 0 15 14;" xml:space="preserve">
<style type="text/css">
	.st0{fill:#C33739;}
	.st1{fill:#7E261D;}
	.st2{fill:#444444;}
	.st3{fill:#FFFFFF;}
</style>
<polygon class="st0" points="9,12 9,11 10,11 10,10 11,10 11,9 12,9 12,8 13,8 13,7 14,7 14,2 13,2 13,1 10,1 10,2 9,2 9,3 8,3 8,4 
	7,4 7,3 6,3 6,2 5,2 5,1 2,1 2,2 1,2 1,7 2,7 2,8 3,8 3,9 4,9 4,10 5,10 5,11 6,11 6,12 7,12 7,13 8,13 8,12 "/>
<line x1="3" y1="0" x2="2" y2="0"/>
<line x1="4" y1="0" x2="3" y2="0"/>
<line x1="5" y1="0" x2="4" y2="0"/>
<line x1="11" y1="0" x2="10" y2="0"/>
<line x1="12" y1="0" x2="11" y2="0"/>
<line x1="13" y1="0" x2="12" y2="0"/>
<line x1="1" y1="2" x2="1" y2="3"/>
<line x1="1" y1="3" x2="1" y2="4"/>
<line x1="1" y1="4" x2="1" y2="5"/>
<line x1="1" y1="5" x2="1" y2="6"/>
<line x1="1" y1="6" x2="1" y2="7"/>
<path d="M14,8"/>
<rect x="8" y="11" class="st1" width="1" height="1"/>
<rect x="5" y="1" class="st2" width="1" height="1"/>
<rect x="9" y="1" class="st2" width="1" height="1"/>
<rect x="13" y="1" class="st2" width="1" height="1"/>
<rect x="6" y="2" class="st2" width="1" height="1"/>
<rect x="7" y="3" class="st2" width="1" height="1"/>
<rect x="8" y="2" class="st2" width="1" height="1"/>
<rect x="13" y="7" class="st2" width="1" height="1"/>
<rect x="12" y="8" class="st2" width="1" height="1"/>
<rect x="11" y="9" class="st2" width="1" height="1"/>
<rect x="10" y="10" class="st2" width="1" height="1"/>
<rect x="9" y="11" class="st2" width="1" height="1"/>
<rect x="7" y="13" class="st2" width="1" height="1"/>
<rect x="1" y="7" class="st2" width="1" height="1"/>
<rect x="2" y="8" class="st2" width="1" height="1"/>
<rect x="3" y="9" class="st2" width="1" height="1"/>
<rect x="4" y="10" class="st2" width="1" height="1"/>
<rect x="5" y="11" class="st2" width="1" height="1"/>
<rect x="6" y="12" class="st2" width="1" height="1"/>
<rect x="12" y="7" class="st1" width="1" height="1"/>
<rect x="10" y="9" class="st1" width="1" height="1"/>
<rect x="11" y="8" class="st1" width="1" height="1"/>
<rect x="9" y="10" class="st1" width="1" height="1"/>
<rect x="1" y="1" class="st2" width="1" height="1"/>
<rect x="8" y="12" class="st2" width="1" height="1"/>
<polygon class="st3" points="2,2 4,2 4,3 3,3 3,4 2,4 "/>
<rect x="13" y="2" class="st1" width="1" height="5"/>
<rect x="14" y="2" class="st2" width="1" height="5"/>
<rect y="2" class="st2" width="1" height="5"/>
<rect x="2" class="st2" width="3" height="1"/>
<rect x="10" class="st2" width="3" height="1"/>
</svg>
